<?xml version="1.0" encoding="utf-8"?>
<!-- Generator: Adobe Adobe Illustrator 24.2.0, SVG Export Plug-In . SVG Version: 6.00 Build 0)  -->
<svg version="1.1" id="Ebene_1" xmlns="http://www.w3.org/2000/svg" xmlns:xlink="http://www.w3.org/1999/xlink" x="0px" y="0px"
	 width="1280px" height="800px" viewBox="0 0 1280 800" style="enable-background:new 0 0 1280 800;" xml:space="preserve">
<g>
	<path d="M614.16,395.27c-4.89,11.04-9.84,21.52-21.46,25.75c-16.46,5.99-33.94-1.41-42.13-17.46c-4.26-8.35-7.34-17.18-8.12-26.62
		c-2.18-26.33-3.02-52.57,6.23-77.99c0.77-2.12,1.6-4.23,2.54-6.28c5.8-12.6,13.85-21.94,29.36-21.38
		c14.4,0.52,28.15,9.74,33.28,23.5c5.85,15.7,9.58,31.79,8.73,48.81c-0.68,13.62-0.04,13.98,13.03,16.23
		c1.11,0.19,2.27,0.08,3.37,0.29c2.82,0.53,4.53,2.09,4.59,5.16c0.06,3.07-1.59,4.48-4.34,5.39c-5.63,1.85-11.19-0.16-17.21-0.14
		c1.69,4.46,10.52,3.62,7.73,10.24c-2,4.74-6.62,2.82-10.76,1.8C617.38,386.83,615.89,390.75,614.16,395.27z M598.05,304.62
		c-0.87-2.08-1.35-4.46-2.69-6.18c-4.34-5.55-9.98-9.7-17.21-9.18c-6.62,0.48-8.77,6.51-10.69,11.84c-1.92,5.3-3.96,10.7-4.79,16.23
		c-1.75,11.73-5.73,23.46-1.83,36.45c12.79,0,25.2-0.12,37.61,0.06c4.95,0.07,6.71-1.84,7.4-6.82
		C607.88,332.4,602.96,319.2,598.05,304.62z M567.96,397.27c4.14,6.97,11.27,9.02,17.58,6.26c8.68-3.79,11.9-12.56,13.83-22.3
		c-12.01-0.19-15.48-14.13-26.39-15.16c0.07,1.39,0.65,1.92,1.27,2.39c3.01,2.29,6.31,4.92,3.55,8.97
		c-2.68,3.92-6.35,1.85-9.84,0.38c-2.34-0.99-3.49-4.51-7.2-3.54C561.57,382.22,563.65,389.43,567.96,397.27z"/>
	<path d="M434.27,374.06c-2.52-5.78-0.83-8.68,4.92-8.97c0.56-0.03,1.13-0.06,1.68-0.16c13.66-2.55,13.88-2.56,13.17-16.87
		c-0.85-17.29,2.75-33.72,9.31-49.49c5.89-14.17,17.36-20.93,32.32-22.05c15.1-1.14,23.31,8.08,29.16,20.23
		c5.19,10.78,8.34,22.34,9.24,34.19c1.87,24.5,3.78,49.16-5.8,72.75c-4.03,9.92-9.84,18.57-20.72,22.12
		c-17.26,5.63-29.98,0.86-39.87-14.56c-4.46-6.96-6.39-15-9.71-22.45c-3.78-1.45-9.32,2.5-11.24-3.16
		c-1.95-5.75,3.86-6.37,9.12-9.16C447.46,375.1,440.67,378.46,434.27,374.06z M512.2,315.82c-0.93-2.96-1.82-5.94-2.8-8.89
		c-1.93-5.77-4.25-11.78-11.17-12.42c-6.93-0.64-13.53,2.79-16.41,8.67c-7.7,15.75-13.77,32.16-10.97,50.38
		c0.5,3.24,1.52,5.33,5.14,5.32c13.43-0.03,26.86-0.01,40.55-0.01C518.66,343.5,515.48,330.34,512.2,315.82z M506.21,405.52
		c6.01-7.8,8.59-16.78,9.67-27.25c-6.02,1.97-10.6,10.64-16.69,4.3c-4.98-5.19,3.34-7.5,5.46-13.26
		c-11.95,3.55-15.73,17.06-27.54,17C482.33,407.43,492.58,414.47,506.21,405.52z"/>
</g>
</svg>
