<?xml version="1.0" encoding="UTF-8" standalone="no"?>
<svg
   xmlns:dc="http://purl.org/dc/elements/1.1/"
   xmlns:cc="http://creativecommons.org/ns#"
   xmlns:rdf="http://www.w3.org/1999/02/22-rdf-syntax-ns#"
   xmlns:svg="http://www.w3.org/2000/svg"
   xmlns="http://www.w3.org/2000/svg"
   xmlns:sodipodi="http://sodipodi.sourceforge.net/DTD/sodipodi-0.dtd"
   xmlns:inkscape="http://www.inkscape.org/namespaces/inkscape"
   version="1.1"
   id="Ebene_1"
   x="0px"
   y="0px"
   width="1920px"
   height="1080px"
   viewBox="0 0 1920 1080"
   style="enable-background:new 0 0 1920 1080;"
   xml:space="preserve"
   sodipodi:docname="icon_eyes_open.svg"
   inkscape:version="1.0.2 (e86c8708, 2021-01-15)"><metadata
   id="metadata79"><rdf:RDF><cc:Work
       rdf:about=""><dc:format>image/svg+xml</dc:format><dc:type
         rdf:resource="http://purl.org/dc/dcmitype/StillImage" /></cc:Work></rdf:RDF></metadata><defs
   id="defs77" /><sodipodi:namedview
   pagecolor="#ffffff"
   bordercolor="#666666"
   borderopacity="1"
   objecttolerance="10"
   gridtolerance="10"
   guidetolerance="10"
   inkscape:pageopacity="0"
   inkscape:pageshadow="2"
   inkscape:window-width="738"
   inkscape:window-height="480"
   id="namedview75"
   showgrid="false"
   inkscape:zoom="0.54791667"
   inkscape:cx="960"
   inkscape:cy="540"
   inkscape:window-x="0"
   inkscape:window-y="25"
   inkscape:window-maximized="0"
   inkscape:current-layer="Ebene_1" />
<g
   id="g72">
	<path
   d="M842.88,545.75c-23.92-51.47-25.46-103.07-4.54-154.74c7.73-19.08,24.86-27.68,44.79-28.38   c19.04-0.67,30.93,10.87,38.52,27.34c14.63,31.74,17.05,65.34,14.96,99.62c-1.05,17.24-3.63,34.1-10.96,49.96   c-9.25,20.02-24.34,30.28-46.82,30.03C861.73,569.38,851.62,559.6,842.88,545.75z M852.01,434.18c-6.7,30.92-0.22,60.47,9.5,89.61   c1.3,3.9,3.74,7.55,6.21,10.89c7.9,10.7,22.14,10.51,29.89-0.43c4.69-6.63,7.7-14.23,8.84-22.18c5.05-35.12,4.89-70.03-6.24-104.19   c-2.7-8.27-5.06-17.88-16.35-17.88c-11.02,0.01-18.74,6.35-22.82,16.25C857.55,414.69,855.27,423.62,852.01,434.18z"
   id="path64" />
	<path
   d="M789.12,572.46c-30.2,13.14-52.35,6.67-65.22-22.3c-22.08-49.69-23.18-100.84-1.62-151.11   c7.83-18.25,24.89-26.77,44.49-27.27c18.55-0.48,30.46,10.58,37.87,26.69c14.78,32.12,17.57,66.13,15.18,100.87   c-1.08,15.68-3.06,31.17-9.39,45.78C805.79,555.82,799.83,565.43,789.12,572.46z M735.86,496.5c0.58,11.13,2.32,22.02,7.08,32.21   c4.79,10.24,8.14,22.78,22.37,22.82c15.64,0.04,18.74-13.23,23-24.69c0.13-0.36,0.29-0.71,0.36-1.09   c6.97-38.95,6.56-77.48-7.62-114.96c-4.67-12.36-14.36-15-25.8-8.22c-6.21,3.68-9.78,9.23-12.4,15.86   C733.12,443.12,728.4,468.2,735.86,496.5z"
   id="path66" />
	<path
   d="M880.34,440.23c13.63-3.24,22.86,2,24.8,13.25c2.1,12.14-7.09,26.91-17.61,28.3c-10.68,1.42-20.2-7.34-19.46-18.65   C868.65,454.19,871.61,446.02,880.34,440.23z"
   id="path68" />
	<path
   d="M788.47,467.41c-1.67,5.58-2.56,10.65-5.01,14.77c-4.25,7.15-11.06,10.61-19.37,8.18c-8.61-2.51-13.36-8.85-12.83-17.88   c0.49-8.5,3.15-16.59,10.43-21.88C772.71,442.58,786.06,450.57,788.47,467.41z"
   id="path70" />
</g>
<rect
   style="fill:#808000;fill-opacity:0"
   id="rect122"
   width="242.73756"
   height="222.66158"
   x="702.66162"
   y="361.3688" /></svg>
