<?xml version="1.0" encoding="utf-8"?>
<!-- Generator: Adobe Adobe Illustrator 24.2.0, SVG Export Plug-In . SVG Version: 6.00 Build 0)  -->
<svg version="1.1" id="Ebene_1" xmlns="http://www.w3.org/2000/svg" xmlns:xlink="http://www.w3.org/1999/xlink" x="0px" y="0px"
	 width="595.28px" height="841.89px" viewBox="0 0 595.28 841.89" style="enable-background:new 0 0 595.28 841.89;"
	 xml:space="preserve">
<g>
	<path d="M308.12,395.49c-1.29,10.03-10.72,15.96-19.72,12.69c-4.1-1.49-7.62-6.72-6.29-10.84c1.26-3.88,0.19-6.57-2.15-9.28
		c-0.23-0.26-0.42-0.56-0.6-0.86c-1.33-2.15-4.27-5.04-1.66-6.76c2.86-1.89,3.56,2.78,5.5,4.22c1.17,0.87,0.87,3.95,3.43,2.64
		c1.76-0.9,3.56-2.14,3.04-4.83c-0.3-1.52-0.28-3.18,0-4.7c0.41-2.13-1.62-5.99,1.53-6.05c3.38-0.06,1.48,3.85,1.82,6.01
		c0.24,1.54,0.12,3.15,0.02,4.72c-0.2,3.36,2.76,2.56,4.42,3.27c1.72,0.74,3.19,0.53,3.93-1.91c0.89-2.96,2.44-5.73,3.67-8.59
		c0.51-1.19,1.04-2.39,2.61-1.82c1.73,0.62,1.03,1.84,0.56,3.01c-1.22,3.04-2.03,6.31-3.68,9.09c-1.41,2.36-0.42,3.47,1.1,4.76
		c2.36,2.01,2.84-0.85,3.74-1.73c1.73-1.68,2.93-3.89,4.56-5.69c0.97-1.07,2.39-2.62,3.89-1.14c1.24,1.22,0.03,2.49-0.94,3.58
		C313.96,388.51,311.13,391.83,308.12,395.49z"/>
</g>
</svg>
