<?xml version="1.0" encoding="UTF-8"?>
<svg id="Ebene_2" data-name="Ebene 2" xmlns="http://www.w3.org/2000/svg" viewBox="0 0 241.51 122.86">
  <defs>
    <style>
      .cls-1 {
        fill: #282625;
      }
    </style>
  </defs>
  <g id="Ebene_1-2" data-name="Ebene 1">
    <g>
      <path class="cls-1" d="m140.02,117.85c7.58,0,15.15.14,22.72-.04,8.1-.2,16.22-.35,24.28-1.39.81-.1,1.64-.09,2.46-.09,9.4,0,18.81-.36,28.18.13,5.91.31,11.93.25,17.75,1.91,1.49.43,3.1.53,4.61,1.03,1.36.45,1.72,1.48,1.32,2.63-.41,1.17-1.48.82-2.42.58-3.17-.82-6.36-1.39-9.65-1.77-13.24-1.54-26.52-.96-39.78-1.02-4.13-.02-8.23.7-12.35,1.01-3.91.29-7.85.4-11.78.42-19.03.09-38.05.06-57.08.02-4.08,0-8.23.07-12.22-.47-9.73-1.32-19.48-1.15-29.21-.94-5.69.12-11.39.74-17.05.26-6.93-.59-13.87-.66-20.76-.29-6.33.35-12.63.31-18.94.22-2.99-.04-6.04-.15-8.92-1.23-.69-.26-1.37-.59-1.17-1.49.2-.94.99-1.14,1.79-1.01,4.1.68,8.24.63,12.38.69,9.56.14,19.09-.9,28.66-.71,4.28.09,8.48,1.08,12.79.78,2.49-.18,2.59-.11,2.57-2.51-.04-5.74,1.11-11.37,1.4-17.08.17-3.52.83-7,1.14-10.52.48-5.56,1.55-11.05,3.14-16.44,1.54-5.23,3.15-10.43,5.72-15.27,2.78-5.25,6.52-9.58,11.95-12.24,1.89-.93,3.78-1.87,5.69-2.78.47-.22.95-.4,1.5-.45,8.3-.8,15.71.57,21.09,7.85,2.2,2.98,3.38,5.98,3.77,9.74.85,8.14.35,16.27.38,24.4.01,2.82-.18,5.77-1.06,8.56-.07.22-.12.45-.1.68.24,2.98-.19,5.96-.51,8.88-.37,3.4-.57,6.84-1.41,10.22-.56,2.23-.7,4.64-.22,6.99.22,1.08,1.05.75,1.68.75,7.4.02,14.8,0,22.2,0,1.82,0,3.64,0,5.46,0v-.02Zm-38.36-.06c1.47,0,2.94-.08,4.4.03.99.07,1.22-.29,1.12-1.16-.29-2.52.63-4.92.84-7.4.3-3.51,1.25-6.99,1.23-10.54-.02-2.8.69-5.55.45-8.35-.02-.27.15-.55.19-.84.37-2.72,1.09-5.46,1.04-8.17-.14-7.99.31-15.97-.44-23.98-.56-5.93-3.69-9.65-8.06-12.59-3.87-2.61-8.55-2.22-13.03-2.1-.32,0-.67.18-.94.37-1.34.92-2.87,1.47-4.35,2.11-7.35,3.16-11.44,9.28-14.12,16.32-1.13,2.99-2.13,6.12-3.03,9.24-1.2,4.2-1.9,8.48-2.63,12.75-.35,2.06-.51,4.25-.57,6.4-.04,1.36.07,2.85-.35,4.13-1.43,4.34-.62,8.91-1.55,13.32-.5,2.37-.3,5.01-.62,7.44-.31,2.3.68,2.1,2.02,1.96,7.78-.81,15.58-.18,23.37-.34,1.1-.02,2.21.22,3.32.32,3.91.36,7.76,1.34,11.73,1.1Z"/>
      <path class="cls-1" d="m75.74,6.96c-.08-1.77.79-3.17,1.93-4.36,1.32-1.39,3.82-.97,5.24.72.26.31.2,1.04.9.85.64-.17.45-.76.43-1.18-.06-1.02.3-1.83,1.34-1.9,1.14-.08,1.14.87,1.22,1.73.1,1.09.27,2.19.51,3.26.11.46.24,1.07.95,1.1.65.02.75-.61.86-.95.56-1.68,1.79-2.66,3.26-3.46.86-.47,1.68-.42,2.47.1.54.36.77.92.59,1.53-.17.59-.55,1.09-1.28.89-.8-.22-1.22.33-1.61.81-.43.53-.91,1.14-.59,1.91.32.77,1.06.86,1.75.94.46.06.94-.06,1.4-.03,1.67.11,2.39-.47,2.53-2.32.25-3.25,3.21-4.72,6.2-3.34.81.37,1.54.82,2.06,1.56.4.57.59.73,1.46.28,1.48-.77,3.36-.39,4.98-1.14.54-.25,1.13.53,1.47,1.08.63,1.04,1.15.82,1.89.06,2.25-2.32,4.57-1.67,5.59,1.45.2.6.04,1.68.87,1.67.8-.01.66-1.1.84-1.69.95-3.14,2.67-3.9,4.26-3.71,1.77.21,3.88,2.56,3.75,4.27-.14,1.87-1.89,1.77-3.02,2.41-.36.2-1.07-.01-.99.67.08.69.74.35,1.15.41,1.32.2,2.43-.6,3.66-.82.83-.15,1.72-.43,2.02.67.26.95-.11,1.66-1.11,2.08-2.45,1.02-4.87,2.02-7.48.48-.2-.12-.42-.21-.62-.34-1.46-.91-2.43-.98-3.87-.19-.68.38-1.15.29-1.65-.32-.61-.74-.64-1.57-.68-2.44-.03-.51.34-1.3-.55-1.42-.59-.08-.88.46-1.13.93-1.33,2.48-1.34,2.49-3.91,1.19-.58-.3-.89-.1-1.07.42-.39,1.09-1.19,1.93-2.28,1.73-1.15-.2-1.51-1.47-1.94-2.47-.11-.26-.01-.63-.17-.84-.24-.33.02-.9-.49-1.03-.63-.16-.72.45-.99.8-2.04,2.69-3.85,3.15-6.93,1.74-.47-.21-.82-.23-1.26.15-2.41,2.11-4.45,1.82-6.96.21-.93-.6-1.73-1.35-2.34.44-.34,1.01-1.77.81-2.5-.2-.84-1.17-.83-2.59-1.22-3.89-.3-.98-.38-1.5-1.35-.45-.54.58-1.38.81-2.24.79-.34,0-.77-.06-.85.41-.11.6.44.52.78.7.55.29,1.12.27,1.7.32.62.05,1.13.34,1.24,1.03.12.73-.25,1.15-.85,1.57-2.17,1.52-8.12-1.36-7.37-4.84Zm4.17-.97c.62.02,1.27,0,1.24-.84-.02-.64-.55-.88-1.11-.88-.63,0-1.23.26-1.26.96-.02.67.54.81,1.13.76Zm8.28,1.54c.04.07.08.15.13.23.04-.04.12-.09.11-.12-.02-.08-.07-.16-.11-.24-.04.04-.08.08-.13.13Z"/>
      <path class="cls-1" d="m74.94,3.17c-.09,1.22-.26,2.78-.31,4.34-.05,1.48-1.16,2.29-1.92,3.32-.35.49-.78.44-1.2.1-.37-.28-.75-.56-1.08-.87q-1.8-1.71-3.41.08c-1.01,1.12-2.79.6-3.31-1.15-.6-1.99-.96-4.06-1.34-6.11-.16-.84-.08-1.76,1.02-1.91,1.03-.14,1.44.55,1.56,1.49.05.4.2.79.3,1.19.43,1.82.61,1.9,2.07.75.73-.58,1.38-.48,1.99.15.24.25.37.63.64.82.49.35.78,1.2,1.55.92.73-.27.35-1.02.44-1.55.14-.85.28-1.71.33-2.57.06-1.08.35-2.12,1.55-2.16,1.49-.05.89,1.33,1.12,2.12.06.22,0,.47,0,1.05Z"/>
      <path class="cls-1" d="m102.56,80.01c.94.12,1.55.56,1.54,1.57,0,.92-.55,1.42-1.44,1.4-.97-.01-1.52-.57-1.54-1.54-.02-.94.61-1.31,1.44-1.43Z"/>
      <path class="cls-1" d="m74.77,78.01c.15,1.89-1.17,1.7-1.91,1.93-.8.26-.8-.73-.82-1.18-.03-.82.43-1.49,1.35-1.54.81-.05,1.3.41,1.38.79Z"/>
    </g>
  </g>
</svg>