<?xml version="1.0" encoding="utf-8"?>
<!-- Generator: Adobe Adobe Illustrator 24.2.0, SVG Export Plug-In . SVG Version: 6.00 Build 0)  -->
<svg version="1.1" xmlns="http://www.w3.org/2000/svg" xmlns:xlink="http://www.w3.org/1999/xlink" x="0px" y="0px"
	 width="595.28px" height="841.89px" viewBox="0 0 595.28 841.89" style="enable-background:new 0 0 595.28 841.89;"
	 xml:space="preserve">
<g id="Ebene_1">
	<g>
		<path d="M276.97,506.32c1.31-8.5,6.79-9.51,13.73-9.04c4.29,0.29,8.66-0.68,13.01-1c3.47-0.26,6.29,0.32,6.39,4.79
			c0.06,2.73,3.99,4.8,1.46,8.14c-2.88,0.67-3.33-1.84-4.5-3.39c-1.02-1.36-1.78-3.19-3.94-2.93c-2.3,0.27-2.45,2.06-2.58,3.89
			c-0.12,1.63-0.57,3.33-2.57,3.32c-1.77-0.01-2.04-1.59-2.19-3.03c-0.16-1.52,0.12-3.39-2.07-3.66c-2.51-0.32-2.51,1.87-3.14,3.41
			c-0.44,1.1-0.37,2.46-1.75,3.29c-3.65-0.81-1.39-3.93-2.2-6.16c-2.7-1.28-3.81,0.74-5.1,2.64
			C280.11,508.68,278.53,510.39,276.97,506.32z"/>
	</g>
</g>
</svg>
