<?xml version="1.0" standalone="no"?>
<!DOCTYPE svg PUBLIC "-//W3C//DTD SVG 20010904//EN"
 "http://www.w3.org/TR/2001/REC-SVG-20010904/DTD/svg10.dtd">
<svg version="1.0" xmlns="http://www.w3.org/2000/svg"
 width="300.000000pt" height="300.000000pt" viewBox="0 0 300.000000 300.000000"
 preserveAspectRatio="xMidYMid meet">
<metadata>
Created by potrace 1.10, written by Peter Selinger 2001-2011
</metadata>
<g transform="translate(0.000000,300.000000) scale(0.100000,-0.100000)"
fill="#000000" stroke="none">
<path d="M2020 1624 c-118 -38 -367 -95 -475 -109 -66 -9 -228 -20 -360 -25
-476 -20 -505 -22 -505 -36 0 -26 49 -46 135 -53 47 -5 97 -6 112 -3 l26 5
-20 -34 c-80 -136 -84 -153 -37 -162 19 -3 37 6 73 36 28 23 47 47 44 54 -4
10 -9 9 -20 -4 -13 -16 -13 -16 -3 5 10 20 14 21 28 10 12 -10 14 -10 8 0 -4
6 -3 12 2 12 5 0 8 18 8 39 -1 22 1 38 4 36 14 -9 60 -13 60 -6 0 12 34 9 42
-3 5 -8 8 -7 8 2 0 6 9 12 20 12 11 0 20 -2 20 -4 0 -2 -16 -38 -35 -80 -37
-82 -37 -101 1 -109 21 -4 30 5 64 60 22 35 43 77 47 93 5 30 6 30 73 30 37 0
81 3 98 6 l30 6 -14 -61 c-8 -33 -18 -71 -23 -83 -6 -15 -5 -27 3 -33 17 -15
53 -16 64 -2 20 24 52 137 46 162 -6 23 -3 25 27 25 19 0 44 3 55 6 27 7 47
47 32 62 -19 19 1 33 21 14 10 -9 16 -20 15 -23 -3 -5 -44 -189 -44 -197 0 -2
4 0 10 3 5 3 7 0 4 -8 -7 -19 46 -30 62 -14 20 21 54 127 54 169 0 23 3 39 6
36 5 -6 39 2 78 17 15 7 17 4 13 -11 -3 -10 -9 -48 -12 -83 -6 -49 -4 -62 5
-56 9 5 10 2 5 -14 -3 -11 -2 -21 3 -21 10 0 27 37 35 75 3 13 5 9 6 -10 0
-17 -3 -35 -8 -40 -6 -6 -4 -15 4 -22 10 -10 15 -6 23 15 20 52 44 165 39 186
-4 17 5 26 54 50 32 16 66 38 76 48 17 19 17 20 -2 34 -22 17 -26 16 -85 -2z
m-79 -100 c-12 -19 -17 -32 -11 -29 13 8 13 -55 0 -75 -7 -11 -10 -6 -10 20 0
26 -3 31 -10 20 -8 -12 -10 -9 -10 12 0 29 -31 54 -56 44 -8 -3 -14 -2 -14 3
0 8 90 38 118 40 10 1 8 -9 -7 -35z m-147 -20 c-32 -15 -54 -50 -54 -83 0 -22
-30 -124 -35 -119 -2 2 4 30 13 62 12 45 13 61 4 64 -7 2 -12 10 -12 17 0 22
22 65 31 60 4 -3 10 -1 14 5 3 5 21 10 38 10 l32 0 -31 -16z m-179 -34 c-3 -5
-12 -10 -18 -10 -7 0 -30 -9 -52 -20 -43 -22 -70 -25 -80 -10 -3 6 -40 10 -82
10 -79 0 -143 -21 -143 -46 0 -16 -57 -134 -65 -134 -2 0 10 29 27 65 33 71
32 101 -1 38 -25 -47 -28 -37 -4 13 17 34 17 37 0 49 -16 11 -16 13 -1 19 8 3
52 6 97 7 45 0 127 7 182 14 131 16 147 17 140 5z m-575 -37 c11 -4 9 -8 -10
-16 -14 -5 -28 -9 -32 -9 -4 1 -21 -25 -38 -57 -17 -32 -45 -74 -62 -92 -29
-34 -29 -34 -9 -3 11 17 36 60 54 97 33 62 34 66 15 70 -34 9 -10 25 29 20 21
-2 45 -7 53 -10z m-46 -80 c-9 -21 -22 -45 -30 -53 -9 -9 -6 6 8 37 26 60 45
73 22 16z"/>
</g>
</svg>
